<svg width="21" height="20" viewBox="0 0 21 20" fill="none" xmlns="http://www.w3.org/2000/svg">
<path d="M11.2158 0.260031C10.9548 0.0870906 10.6478 -0.00346462 10.3347 0.000101411C10.0216 0.00366744 9.71682 0.10119 9.4598 0.280031L1.5948 5.76003C1.1748 6.05203 0.924805 6.53003 0.924805 7.04203V12.945C0.924805 13.47 1.1888 13.959 1.6268 14.248L9.6208 19.533C9.87635 19.702 10.1759 19.7921 10.4823 19.7921C10.7887 19.7921 11.0883 19.702 11.3438 19.533L19.4968 14.147C19.9348 13.857 20.1978 13.367 20.1978 12.843V7.04303C20.1978 6.51903 19.9348 6.03003 19.4978 5.74003L11.2158 0.260031ZM17.3058 6.65303L14.2918 8.67603L11.4658 6.62103L11.4478 2.57903L17.3048 6.65303H17.3058ZM9.4038 2.58303V6.54003L6.5068 8.56403L3.6198 6.62703L9.4038 2.58303ZM2.8268 8.57603L4.69681 9.82903L2.8268 11.137V8.57703V8.57603ZM9.4518 17.009L3.6208 13.1L6.5338 11.063L9.4538 13.021V17.011L9.4518 17.009ZM8.3468 9.79603L10.2348 8.47603L12.4348 9.92103L10.4848 11.231L8.3468 9.79603ZM11.5138 17.009V13.019L14.3038 11.149L17.3068 13.124L11.5138 17.009ZM18.1388 11.204L16.1588 9.90403L18.1388 8.57503V11.205V11.204Z" fill="#475569"/>
</svg>
