<svg width="24" height="24" viewBox="0 0 24 24" fill="none" xmlns="http://www.w3.org/2000/svg">
<path d="M7.00003 20C7.26525 20 7.5196 19.8947 7.70714 19.7071C7.89467 19.5196 8.00003 19.2652 8.00003 19C8.00003 18.7348 7.89467 18.4805 7.70714 18.2929C7.5196 18.1054 7.26525 18 7.00003 18C6.73481 18 6.48046 18.1054 6.29292 18.2929C6.10539 18.4805 6.00003 18.7348 6.00003 19C6.00003 19.2652 6.10539 19.5196 6.29292 19.7071C6.48046 19.8947 6.73481 20 7.00003 20ZM8.00003 12.998V16.171C8.66752 16.4069 9.23012 16.8712 9.58839 17.4818C9.94666 18.0924 10.0775 18.81 9.95784 19.5078C9.83817 20.2056 9.47566 20.8386 8.9344 21.2949C8.39314 21.7512 7.70798 22.0015 7.00003 22.0015C6.29208 22.0015 5.60692 21.7512 5.06566 21.2949C4.5244 20.8386 4.16189 20.2056 4.04222 19.5078C3.92254 18.81 4.0534 18.0924 4.41167 17.4818C4.76994 16.8712 5.33254 16.4069 6.00003 16.171V7.82902C5.33254 7.59312 4.76994 7.12883 4.41167 6.51822C4.0534 5.90761 3.92254 5.19 4.04222 4.49223C4.16189 3.79447 4.5244 3.16148 5.06566 2.70515C5.60692 2.24882 6.29208 1.99854 7.00003 1.99854C7.70798 1.99854 8.39314 2.24882 8.9344 2.70515C9.47566 3.16148 9.83817 3.79447 9.95784 4.49223C10.0775 5.19 9.94666 5.90761 9.58839 6.51822C9.23012 7.12883 8.66752 7.59312 8.00003 7.82902V10.169C8.31203 10.059 8.64703 9.99902 8.99703 9.99802L15.034 9.99202C15.2991 9.99176 15.5532 9.88628 15.7405 9.69878C15.9278 9.51127 16.033 9.25707 16.033 8.99202V7.84002C15.3614 7.60992 14.7931 7.14915 14.4291 6.5396C14.0651 5.93006 13.929 5.2112 14.045 4.51078C14.161 3.81036 14.5215 3.17374 15.0625 2.71405C15.6036 2.25435 16.2901 2.00136 17 2.00002C17.7049 1.99973 18.3874 2.24766 18.9278 2.70031C19.4681 3.15297 19.8318 3.78144 19.9551 4.47548C20.0783 5.16952 19.9532 5.88479 19.6018 6.49582C19.2503 7.10684 18.6949 7.5746 18.033 7.81702V8.99202C18.033 9.78715 17.7174 10.5498 17.1554 11.1123C16.5935 11.6748 15.8312 11.9912 15.036 11.992L8.99903 11.998C8.73399 11.9983 8.47989 12.1038 8.29257 12.2913C8.10525 12.4788 8.00003 12.733 8.00003 12.998ZM7.00003 6.00002C7.26525 6.00002 7.5196 5.89467 7.70714 5.70713C7.89467 5.51959 8.00003 5.26524 8.00003 5.00002C8.00003 4.73481 7.89467 4.48045 7.70714 4.29292C7.5196 4.10538 7.26525 4.00002 7.00003 4.00002C6.73481 4.00002 6.48046 4.10538 6.29292 4.29292C6.10539 4.48045 6.00003 4.73481 6.00003 5.00002C6.00003 5.26524 6.10539 5.51959 6.29292 5.70713C6.48046 5.89467 6.73481 6.00002 7.00003 6.00002ZM17 6.00002C17.2652 6.00002 17.5196 5.89467 17.7071 5.70713C17.8947 5.51959 18 5.26524 18 5.00002C18 4.73481 17.8947 4.48045 17.7071 4.29292C17.5196 4.10538 17.2652 4.00002 17 4.00002C16.7348 4.00002 16.4805 4.10538 16.2929 4.29292C16.1054 4.48045 16 4.73481 16 5.00002C16 5.26524 16.1054 5.51959 16.2929 5.70713C16.4805 5.89467 16.7348 6.00002 17 6.00002Z" fill="#475569"/>
</svg>
