<svg width="58" height="61" viewBox="0 0 58 61" fill="none" xmlns="http://www.w3.org/2000/svg">
<g filter="url(#filter0_dd_53_163774)">
<rect x="5" y="4" width="48" height="48" rx="24" fill="white"/>
<rect x="6" y="5" width="46" height="46" rx="23" stroke="white" stroke-width="2"/>
<path d="M30.3137 28.071L25.3637 23.121C25.1816 22.9324 25.0808 22.6798 25.083 22.4176C25.0853 22.1554 25.1905 21.9046 25.3759 21.7192C25.5613 21.5338 25.8121 21.4286 26.0743 21.4263C26.3365 21.424 26.5891 21.5248 26.7777 21.707L32.4347 27.364C32.6222 27.5515 32.7275 27.8058 32.7275 28.071C32.7275 28.3361 32.6222 28.5905 32.4347 28.778L26.7777 34.435C26.5891 34.6171 26.3365 34.7179 26.0743 34.7157C25.8121 34.7134 25.5613 34.6082 25.3759 34.4228C25.1905 34.2374 25.0853 33.9866 25.083 33.7244C25.0808 33.4622 25.1816 33.2096 25.3637 33.021L30.3137 28.071Z" fill="#475569"/>
</g>
<defs>
<filter id="filter0_dd_53_163774" x="0" y="0" width="58" height="61" filterUnits="userSpaceOnUse" color-interpolation-filters="sRGB">
<feFlood flood-opacity="0" result="BackgroundImageFix"/>
<feColorMatrix in="SourceAlpha" type="matrix" values="0 0 0 0 0 0 0 0 0 0 0 0 0 0 0 0 0 0 127 0" result="hardAlpha"/>
<feOffset/>
<feGaussianBlur stdDeviation="2"/>
<feColorMatrix type="matrix" values="0 0 0 0 0 0 0 0 0 0 0 0 0 0 0 0 0 0 0.07 0"/>
<feBlend mode="normal" in2="BackgroundImageFix" result="effect1_dropShadow_53_163774"/>
<feColorMatrix in="SourceAlpha" type="matrix" values="0 0 0 0 0 0 0 0 0 0 0 0 0 0 0 0 0 0 127 0" result="hardAlpha"/>
<feMorphology radius="1" operator="erode" in="SourceAlpha" result="effect2_dropShadow_53_163774"/>
<feOffset dy="4"/>
<feGaussianBlur stdDeviation="3"/>
<feColorMatrix type="matrix" values="0 0 0 0 0 0 0 0 0 0 0 0 0 0 0 0 0 0 0.1 0"/>
<feBlend mode="normal" in2="effect1_dropShadow_53_163774" result="effect2_dropShadow_53_163774"/>
<feBlend mode="normal" in="SourceGraphic" in2="effect2_dropShadow_53_163774" result="shape"/>
</filter>
</defs>
</svg>
