<svg width="65" height="64" viewBox="0 0 65 64" fill="none" xmlns="http://www.w3.org/2000/svg">
<path d="M18.6543 10.6666H46.8353C46.8353 10.6666 44.487 46.0189 32.7449 46.0189C27.0087 46.0189 23.5144 37.5826 21.4404 28.9522C19.2687 19.9158 18.6543 10.6666 18.6543 10.6666Z" stroke="#BE123C" stroke-width="1.5" stroke-linecap="round" stroke-linejoin="round"/>
<path d="M46.835 10.6667C46.835 10.6667 49.2915 8.04623 51.3331 7.99999C55.3331 7.90943 56.0726 10.6667 56.0726 10.6667C56.8555 12.2921 57.4816 16.5181 53.7243 20.4191C49.9667 24.32 45.7606 27.7333 44.0488 28.9523" stroke="#BE123C" stroke-width="1.5" stroke-linecap="round" stroke-linejoin="round"/>
<path d="M18.654 10.6667C18.654 10.6667 16.0946 8.01637 13.9998 8.00002C9.99983 7.9688 9.26034 10.6667 9.26034 10.6667C8.47751 12.2921 7.85127 16.5181 11.6088 20.4191C15.3662 24.32 19.7286 27.7333 21.4401 28.9525" stroke="#BE123C" stroke-width="1.5" stroke-linecap="round" stroke-linejoin="round"/>
<path d="M23.3506 53.3333C23.3506 48.4571 32.7441 46.0189 32.7441 46.0189C32.7441 46.0189 42.138 48.4571 42.138 53.3333H23.3506Z" stroke="#BE123C" stroke-width="1.5" stroke-linecap="round" stroke-linejoin="round"/>
</svg>
