<svg width="64" height="64" viewBox="0 0 64 64" fill="none" xmlns="http://www.w3.org/2000/svg">
<path d="M37.3333 37.3333H18.6667C12.7756 37.3333 8 32.5576 8 26.6667C8 20.7756 12.7756 16 18.6667 16H37.3333M37.3333 37.3333V16V37.3333ZM37.3333 37.3333L53.6061 46.632C54.6728 47.2416 56 46.4715 56 45.2429V8.09042C56 6.86188 54.6728 6.0917 53.6061 6.70122L37.3333 16V37.3333Z" stroke="#BE123C" stroke-width="1.5"/>
<path d="M20.6861 51.467L18.667 37.3334H29.3337L31.1395 49.9736C31.5939 53.1544 29.1257 56 25.9128 56C23.2853 56 21.0577 54.068 20.6861 51.467Z" stroke="#BE123C" stroke-width="1.5"/>
</svg>
