<svg width="25" height="24" viewBox="0 0 25 24" fill="none" xmlns="http://www.w3.org/2000/svg">
<path d="M7.33363 18.9999C6.6104 18.9995 5.89588 18.8422 5.23934 18.5389C4.5828 18.2355 3.99988 17.7934 3.5308 17.2429C3.06171 16.6925 2.71762 16.0468 2.52228 15.3504C2.32693 14.6541 2.28497 13.9237 2.39929 13.2095C2.51361 12.4954 2.7815 11.8146 3.18446 11.214C3.58742 10.6135 4.11588 10.1075 4.73336 9.73095C5.35084 9.35443 6.04266 9.11634 6.76108 9.03312C7.4795 8.9499 8.20742 9.02352 8.89463 9.24891C9.5292 7.76654 10.656 6.54862 12.0846 5.80085C13.5132 5.05309 15.1561 4.82133 16.7358 5.1447C18.3156 5.46807 19.7353 6.32677 20.7551 7.57574C21.775 8.82472 22.3326 10.3874 22.3336 11.9999C22.3336 13.8564 21.5961 15.6369 20.2834 16.9497C18.9706 18.2624 17.1901 18.9999 15.3336 18.9999H7.33363ZM7.33363 16.9999H15.3336C16.2366 16.9995 17.1226 16.7546 17.8976 16.2911C18.6725 15.8277 19.3075 15.163 19.7351 14.3677C20.1627 13.5724 20.367 12.6761 20.3262 11.7741C20.2854 10.872 20.0011 9.99788 19.5035 9.24441C19.0059 8.49093 18.3135 7.88628 17.4999 7.49465C16.6863 7.10302 15.7818 6.93904 14.8824 7.0201C13.9831 7.10116 13.1225 7.42425 12.3921 7.95506C11.6616 8.48588 11.0885 9.20459 10.7336 10.0349L10.0136 11.7209L8.27163 11.1489C7.8594 11.0139 7.4228 10.9699 6.99193 11.0199C6.56105 11.07 6.14615 11.2128 5.77583 11.4387C5.4055 11.6646 5.08856 11.968 4.84685 12.3282C4.60515 12.6884 4.44442 13.0967 4.37576 13.525C4.3071 13.9533 4.33213 14.3914 4.44913 14.8091C4.56613 15.2268 4.77233 15.6142 5.05349 15.9445C5.33465 16.2748 5.6841 16.5402 6.07774 16.7224C6.47138 16.9046 6.89986 16.9993 7.33363 16.9999Z" fill="#475569"/>
</svg>
