<svg width="25" height="24" viewBox="0 0 25 24" fill="none" xmlns="http://www.w3.org/2000/svg">
<path d="M22.6665 10.163C22.3405 10.3463 22.0692 10.613 21.8804 10.9359C21.6917 11.2587 21.5923 11.626 21.5925 12C21.5925 12.789 22.0255 13.476 22.6665 13.837L21.9495 16.243C21.562 16.1763 21.1635 16.2196 20.7992 16.3678C20.435 16.516 20.1195 16.7633 19.8887 17.0816C19.6578 17.3999 19.5207 17.7766 19.4929 18.1688C19.4651 18.5611 19.5478 18.9533 19.7315 19.301L17.6695 20.903C17.3965 20.6792 17.0716 20.5277 16.7247 20.4624C16.3778 20.3971 16.02 20.4202 15.6844 20.5295C15.3487 20.6387 15.0459 20.8307 14.8039 21.0877C14.5619 21.3447 14.3884 21.6584 14.2995 22L11.0095 21.992C10.9196 21.652 10.7459 21.34 10.5043 21.0845C10.2627 20.829 9.96089 20.6381 9.62649 20.5292C9.29209 20.4204 8.93575 20.3972 8.59003 20.4616C8.24432 20.526 7.92027 20.676 7.6475 20.898L5.5875 19.283C5.76608 18.9367 5.84506 18.5477 5.81565 18.1592C5.78624 17.7708 5.64959 17.3981 5.42093 17.0826C5.19226 16.7672 4.88055 16.5214 4.52048 16.3727C4.16041 16.2239 3.76612 16.178 3.3815 16.24L2.6665 13.825C2.98645 13.6398 3.25202 13.3737 3.43651 13.0533C3.621 12.733 3.71791 12.3697 3.7175 12C3.7175 11.22 3.2965 10.54 2.6665 10.175L3.3815 7.76C3.7662 7.82225 4.16063 7.77648 4.52085 7.6278C4.88108 7.47912 5.19296 7.23336 5.42175 6.9179C5.65055 6.60243 5.78729 6.22964 5.81673 5.84106C5.84617 5.45247 5.76716 5.06334 5.5885 4.717L7.6465 3.102C7.91927 3.32395 8.24332 3.47399 8.58903 3.53841C8.93475 3.60283 9.29109 3.57957 9.62549 3.47075C9.95989 3.36194 10.2617 3.17104 10.5033 2.91551C10.7449 2.65998 10.9186 2.34797 11.0085 2.008L14.3005 2C14.3894 2.34161 14.5629 2.65535 14.8049 2.91233C15.0469 3.16931 15.3497 3.36127 15.6854 3.47053C16.021 3.5798 16.3788 3.60285 16.7257 3.53758C17.0726 3.4723 17.3975 3.32079 17.6705 3.097L19.7305 4.7C19.5468 5.04769 19.4641 5.43989 19.4919 5.83215C19.5197 6.22442 19.6568 6.60106 19.8877 6.91938C20.1185 7.23771 20.434 7.485 20.7982 7.63322C21.1625 7.78144 21.5609 7.82467 21.9485 7.758L22.6665 10.162V10.163ZM17.4895 5.68C17.4895 5.617 17.4915 5.555 17.4945 5.492L17.4145 5.43C16.6356 5.64219 15.8114 5.61989 15.0451 5.36588C14.2788 5.11187 13.6044 4.63744 13.1065 4.002L12.2025 4.004C11.7064 4.63674 11.0352 5.10966 10.2725 5.36392C9.50971 5.61817 8.68902 5.64255 7.9125 5.434L7.8175 5.51C7.85516 6.41268 7.59419 7.30259 7.075 8.04197C6.55581 8.78135 5.80735 9.32895 4.9455 9.6C5.44832 10.2988 5.71841 11.1381 5.7175 11.999C5.7175 12.881 5.4375 13.714 4.9455 14.399C5.80735 14.67 6.55581 15.2176 7.075 15.957C7.59419 16.6964 7.85516 17.5863 7.8175 18.489L7.9135 18.564C8.6899 18.3562 9.51021 18.3809 10.2727 18.6351C11.0351 18.8894 11.7062 19.3619 12.2025 19.994L13.1065 19.996C13.6041 19.3604 14.2783 18.8859 15.0444 18.6319C15.8106 18.3778 16.6347 18.3556 17.4135 18.568L17.4935 18.506C17.4523 17.6005 17.7117 16.7068 18.2314 15.9642C18.751 15.2215 19.5017 14.6716 20.3665 14.4C19.8633 13.701 19.5928 12.8613 19.5935 12C19.5935 11.118 19.8745 10.284 20.3665 9.6C19.5325 9.33781 18.8039 8.81638 18.2866 8.11155C17.7694 7.40672 17.4905 6.55526 17.4905 5.681L17.4895 5.68ZM12.6665 16C11.6056 16 10.5882 15.5786 9.83808 14.8284C9.08793 14.0783 8.6665 13.0609 8.6665 12C8.6665 10.9391 9.08793 9.92172 9.83808 9.17157C10.5882 8.42143 11.6056 8 12.6665 8C13.7274 8 14.7448 8.42143 15.4949 9.17157C16.2451 9.92172 16.6665 10.9391 16.6665 12C16.6665 13.0609 16.2451 14.0783 15.4949 14.8284C14.7448 15.5786 13.7274 16 12.6665 16ZM12.6665 14C13.1969 14 13.7056 13.7893 14.0807 13.4142C14.4558 13.0391 14.6665 12.5304 14.6665 12C14.6665 11.4696 14.4558 10.9609 14.0807 10.5858C13.7056 10.2107 13.1969 10 12.6665 10C12.1361 10 11.6274 10.2107 11.2523 10.5858C10.8772 10.9609 10.6665 11.4696 10.6665 12C10.6665 12.5304 10.8772 13.0391 11.2523 13.4142C11.6274 13.7893 12.1361 14 12.6665 14Z" fill="#475569"/>
</svg>
