<svg width="34" height="32" viewBox="0 0 34 32" fill="none" xmlns="http://www.w3.org/2000/svg">
<path d="M23.4828 26.4845L2.07016 11.714C-0.099749 10.2173 0.637877 7.10088 3.3437 6.36802L26.1015 0.191307C26.5836 0.0173566 27.1001 -0.0391112 27.6085 0.0265948C28.1167 0.0923008 28.602 0.278283 29.024 0.569108C29.446 0.859932 29.7926 1.24721 30.0349 1.6988C30.2772 2.15038 30.4083 2.65326 30.4174 3.16568L29.0687 24.1116C28.9087 26.5978 25.6527 27.9812 23.4828 26.4845Z" fill="#94A3B8"/>
<path d="M16.6914 30.1304L4.07652 5.46053C3.78815 4.89616 3.66126 4.26311 3.70983 3.6312C3.75839 2.99929 3.98054 2.39306 4.35175 1.87938C4.72298 1.36571 5.22885 0.964525 5.81359 0.720082C6.39833 0.475639 7.03922 0.397437 7.66558 0.494104L31.044 4.10225C31.5822 4.18533 32.0931 4.39498 32.5346 4.71397C32.9759 5.03296 33.3353 5.45217 33.5832 5.93712C33.831 6.42208 33.9603 6.95894 33.9602 7.50356C33.96 8.04818 33.8307 8.58501 33.5828 9.06988L22.8132 30.1315C22.524 30.6943 22.0852 31.1665 21.5451 31.496C21.005 31.8257 20.3846 32 19.7519 31.9998C19.1192 31.9997 18.4988 31.8252 17.9588 31.4954C17.4188 31.1655 16.9803 30.6932 16.6914 30.1304Z" fill="#94A3B8"/>
<path d="M24.3809 8.72693L19.8921 8L14.3809 9.57011L16.5807 14.0856L21.7319 17.8153C21.8456 17.8966 21.9706 17.959 22.1024 18L24.059 13.9852L24.3809 8.72693Z" fill="white"/>
</svg>
