<svg width="25" height="24" viewBox="0 0 25 24" fill="none" xmlns="http://www.w3.org/2000/svg">
<path d="M4.33301 18.59C4.33301 18.8552 4.22765 19.1096 4.04011 19.2971C3.85258 19.4846 3.59822 19.59 3.33301 19.59C3.06779 19.59 2.81344 19.4846 2.6259 19.2971C2.43836 19.1096 2.33301 18.8552 2.33301 18.59V12.5C2.33301 6.977 6.81001 2.5 12.333 2.5C17.856 2.5 22.333 6.977 22.333 12.5V15.586C22.333 15.8512 22.2277 16.1056 22.0401 16.2931C21.8526 16.4806 21.5982 16.586 21.333 16.586C21.0678 16.586 20.8134 16.4806 20.6259 16.2931C20.4384 16.1056 20.333 15.8512 20.333 15.586V12.5C20.333 10.3783 19.4902 8.34344 17.9899 6.84315C16.4896 5.34285 14.4547 4.5 12.333 4.5C10.2113 4.5 8.17644 5.34285 6.67615 6.84315C5.17586 8.34344 4.33301 10.3783 4.33301 12.5V18.59ZM4.33301 12.5H6.33301C6.86344 12.5 7.37215 12.7107 7.74722 13.0858C8.12229 13.4609 8.33301 13.9696 8.33301 14.5V19.5C8.33301 20.0304 8.12229 20.5391 7.74722 20.9142C7.37215 21.2893 6.86344 21.5 6.33301 21.5H4.33301C3.80257 21.5 3.29387 21.2893 2.91879 20.9142C2.54372 20.5391 2.33301 20.0304 2.33301 19.5V14.5C2.33301 13.9696 2.54372 13.4609 2.91879 13.0858C3.29387 12.7107 3.80257 12.5 4.33301 12.5ZM4.33301 14.5V19.5H6.33301V14.5H4.33301ZM18.333 12.5H20.333C20.8634 12.5 21.3721 12.7107 21.7472 13.0858C22.1223 13.4609 22.333 13.9696 22.333 14.5V19.5C22.333 20.0304 22.1223 20.5391 21.7472 20.9142C21.3721 21.2893 20.8634 21.5 20.333 21.5H18.333C17.8026 21.5 17.2939 21.2893 16.9188 20.9142C16.5437 20.5391 16.333 20.0304 16.333 19.5V14.5C16.333 13.9696 16.5437 13.4609 16.9188 13.0858C17.2939 12.7107 17.8026 12.5 18.333 12.5ZM18.333 14.5V19.5H20.333V14.5H18.333Z" fill="#475569"/>
</svg>
