<svg width="14" height="10" viewBox="0 0 14 10" fill="none" xmlns="http://www.w3.org/2000/svg">
<path d="M5.48623 9.22989C5.35497 9.23016 5.22494 9.2045 5.10361 9.1544C4.98229 9.10429 4.87205 9.03071 4.77923 8.93789L0.537232 4.69489C0.441659 4.60271 0.365401 4.49242 0.312907 4.37046C0.260414 4.24849 0.232736 4.11729 0.231489 3.98451C0.230243 3.85174 0.255452 3.72004 0.305646 3.59711C0.35584 3.47418 0.430013 3.36248 0.523839 3.26852C0.617664 3.17456 0.729262 3.10023 0.852122 3.04986C0.974981 2.99949 1.10664 2.9741 1.23942 2.97516C1.3722 2.97622 1.50344 3.00371 1.62548 3.05603C1.74752 3.10835 1.85792 3.18445 1.95023 3.27989L5.48523 6.81489L11.8502 0.451894C12.0377 0.264253 12.2921 0.158785 12.5574 0.158691C12.8226 0.158598 13.0771 0.263886 13.2647 0.451394C13.4524 0.638902 13.5578 0.89327 13.5579 1.15854C13.558 1.42381 13.4527 1.67825 13.2652 1.86589L6.19323 8.93789C6.10041 9.03071 5.99018 9.10429 5.86885 9.1544C5.74752 9.2045 5.6175 9.23016 5.48623 9.22989Z" fill="white"/>
</svg>
