<svg width="24" height="24" viewBox="0 0 24 24" fill="none" xmlns="http://www.w3.org/2000/svg">
<path d="M10.5098 16.5C11.2977 16.5 12.0779 16.3448 12.8059 16.0433C13.5338 15.7418 14.1953 15.2998 14.7524 14.7427C15.3096 14.1855 15.7515 13.5241 16.053 12.7961C16.3546 12.0682 16.5098 11.2879 16.5098 10.5C16.5098 9.71208 16.3546 8.93187 16.053 8.20391C15.7515 7.47596 15.3096 6.81453 14.7524 6.25737C14.1953 5.70022 13.5338 5.25827 12.8059 4.95674C12.0779 4.65521 11.2977 4.50002 10.5098 4.50002C8.91847 4.50002 7.39234 5.13216 6.26712 6.25737C5.14191 7.38259 4.50977 8.90872 4.50977 10.5C4.50977 12.0913 5.14191 13.6174 6.26712 14.7427C7.39234 15.8679 8.91847 16.5 10.5098 16.5ZM16.8298 15.406L20.4098 18.986C20.5052 19.0783 20.5813 19.1887 20.6336 19.3108C20.686 19.4328 20.7134 19.564 20.7145 19.6968C20.7156 19.8296 20.6902 19.9613 20.6398 20.0841C20.5894 20.207 20.5151 20.3186 20.4211 20.4124C20.3272 20.5062 20.2155 20.5804 20.0926 20.6306C19.9696 20.6808 19.8379 20.706 19.7051 20.7048C19.5724 20.7035 19.4412 20.6758 19.3192 20.6233C19.1972 20.5708 19.0869 20.4946 18.9948 20.399L15.4148 16.819C13.8072 18.0669 11.7846 18.6552 9.75852 18.4642C7.73248 18.2732 5.85537 17.3173 4.50932 15.7911C3.16326 14.2648 2.44945 12.283 2.51319 10.2489C2.57693 8.21492 3.41343 6.28164 4.85241 4.84266C6.29139 3.40368 8.22467 2.56718 10.2587 2.50344C12.2927 2.4397 14.2746 3.15351 15.8008 4.49957C17.3271 5.84562 18.283 7.72273 18.474 9.74877C18.6649 11.7748 18.0766 13.7975 16.8288 15.405L16.8298 15.406Z" fill="#0F172A"/>
</svg>
