<svg width="22" height="32" viewBox="0 0 22 32" fill="none" xmlns="http://www.w3.org/2000/svg">
<path d="M10.1659 19.9817V28.1025C10.1659 28.4138 10.0422 28.7124 9.82209 28.9324C9.60205 29.1526 9.3035 29.2762 8.99215 29.2762C8.68091 29.2762 8.38237 29.1526 8.16222 28.9324C7.94207 28.7124 7.81841 28.4138 7.81841 28.1025V19.993C8.14526 20.2317 8.53703 20.3649 8.94161 20.3749C9.38258 20.3874 9.81467 20.2487 10.1659 19.9817ZM20.1624 17.6343C19.8645 17.6343 19.5788 17.7526 19.3682 17.9632C19.1576 18.1738 19.0392 18.4596 19.0392 18.7575V20.1727C19.0392 20.484 19.1629 20.7826 19.383 21.0026C19.603 21.2228 19.9016 21.3464 20.2129 21.3464C20.5243 21.3464 20.8228 21.2228 21.0429 21.0026C21.263 20.7826 21.3867 20.484 21.3867 20.1727V18.8136C21.3954 18.6526 21.3694 18.4915 21.3103 18.3414C21.2512 18.1914 21.1606 18.0557 21.0443 17.9438C20.9282 17.8319 20.7892 17.7464 20.6372 17.6929C20.485 17.6395 20.323 17.6195 20.1624 17.6343ZM5.26874 23.0593C4.86458 23.0472 4.47332 22.9142 4.14554 22.6774V30.8206C4.14554 31.1335 4.26979 31.4335 4.49097 31.6546C4.71214 31.8758 5.01211 32 5.3249 32C5.63769 32 5.93766 31.8758 6.15883 31.6546C6.38001 31.4335 6.50426 31.1335 6.50426 30.8206V22.7336C6.13748 22.9707 5.70472 23.0848 5.26874 23.0593ZM16.5008 15.1969C16.3486 15.1893 16.1965 15.2127 16.0536 15.2658C15.9108 15.3188 15.7803 15.4003 15.6699 15.5053C15.5596 15.6105 15.4719 15.7368 15.4119 15.8769C15.3521 16.017 15.3212 16.1678 15.3214 16.3201V22.5763C15.3214 22.8892 15.4456 23.1892 15.6668 23.4103C15.888 23.6315 16.1879 23.7557 16.5008 23.7557C16.8136 23.7557 17.1136 23.6315 17.3347 23.4103C17.5559 23.1892 17.6801 22.8892 17.6801 22.5763V16.3987C17.6891 16.2367 17.6628 16.0746 17.6031 15.9236C17.5433 15.7727 17.4517 15.6364 17.3342 15.5243C17.2167 15.4122 17.0764 15.3269 16.9229 15.2743C16.7693 15.2216 16.6061 15.2029 16.4446 15.2194L16.5008 15.1969ZM12.7717 17.6006C12.3486 17.5976 11.9368 17.4643 11.5924 17.2187V25.3843C11.5924 25.6972 11.7166 25.9972 11.9377 26.2183C12.159 26.4395 12.4589 26.5637 12.7717 26.5637C13.0845 26.5637 13.3844 26.4395 13.6057 26.2183C13.8269 25.9972 13.9511 25.6972 13.9511 25.3843V17.2299C13.5948 17.4953 13.1598 17.6337 12.7156 17.623L12.7717 17.6006ZM2.71907 23.8568V1.04458C2.71612 0.766506 2.60357 0.500847 2.40589 0.305264C2.20821 0.109681 1.94135 -1.12311e-05 1.66326 8.625e-10H1.41616C1.13808 -1.12311e-05 0.871217 0.109681 0.673534 0.305264C0.47585 0.500847 0.363306 0.766506 0.360352 1.04458V23.8568C0.360352 24.1368 0.471593 24.4054 0.669591 24.6034C0.867589 24.8014 1.13615 24.9126 1.41616 24.9126H1.66326C1.94329 24.9126 2.21184 24.8014 2.40983 24.6034C2.60784 24.4054 2.71907 24.1368 2.71907 23.8568ZM5.39229 22.1945H5.14519C4.86517 22.1945 4.59662 22.0833 4.39862 21.8852C4.20062 21.6872 4.08938 21.4187 4.08938 21.1386V3.76272C4.09234 3.48466 4.20488 3.21898 4.40256 3.02341C4.60024 2.82783 4.86711 2.71814 5.14519 2.71815H5.39229C5.67037 2.71814 5.93724 2.82783 6.13492 3.02341C6.3326 3.21898 6.44515 3.48466 6.4481 3.76272V21.1611C6.4481 21.4411 6.33686 21.7097 6.13886 21.9077C5.94086 22.1057 5.67231 22.2169 5.39229 22.2169V22.1945ZM9.11009 19.5212H8.85175C8.57477 19.5212 8.30902 19.4112 8.11313 19.2153C7.91725 19.0194 7.80718 18.7538 7.80718 18.4767V6.45841C7.80572 6.32029 7.83166 6.18325 7.88344 6.05521C7.93522 5.92718 8.01193 5.8107 8.10909 5.71251C8.20625 5.61432 8.32194 5.53637 8.44942 5.48318C8.57691 5.42998 8.7136 5.40259 8.85175 5.4026H9.11009C9.38819 5.40556 9.65383 5.5181 9.84938 5.71578C10.045 5.91346 10.1547 6.18032 10.1547 6.45841V18.4767C10.1547 18.7538 10.0446 19.0194 9.84871 19.2153C9.65282 19.4112 9.38718 19.5212 9.11009 19.5212ZM12.8279 16.7694H12.592C12.3139 16.7694 12.047 16.6598 11.8494 16.4641C11.6517 16.2686 11.5391 16.0029 11.5362 15.7248V9.25518C11.527 9.11096 11.5474 8.9664 11.5964 8.83038C11.6453 8.69448 11.7216 8.56991 11.8206 8.46467C11.9196 8.35931 12.0391 8.27552 12.1718 8.21824C12.3045 8.16107 12.4475 8.13164 12.592 8.13198H12.8391C13.1191 8.13198 13.3877 8.24317 13.5857 8.44119C13.7837 8.63921 13.8949 8.90777 13.8949 9.18779V15.7024C13.8964 15.842 13.8702 15.9805 13.8178 16.1098C13.7654 16.2392 13.6879 16.357 13.5896 16.4562C13.4915 16.5554 13.3747 16.6342 13.2457 16.688C13.1169 16.7418 12.9787 16.7694 12.8391 16.7694H12.8279ZM16.5569 14.3545H16.3098C16.0298 14.3545 15.7612 14.2433 15.5632 14.0453C15.3652 13.8473 15.254 13.5787 15.254 13.2987V11.6251C15.2569 11.347 15.3695 11.0814 15.5671 10.8858C15.7648 10.6902 16.0317 10.5806 16.3098 10.5806H16.5569C16.835 10.5806 17.1019 10.6902 17.2996 10.8858C17.4973 11.0814 17.6098 11.347 17.6127 11.6251V13.2987C17.6127 13.5768 17.5031 13.8437 17.3074 14.0414C17.1119 14.239 16.8462 14.3516 16.5681 14.3545H16.5569Z" fill="#94A3B8"/>
</svg>
